<svg xmlns="http://www.w3.org/2000/svg" width="14.076" height="13.278" viewBox="0 0 14.076 13.278">
  <path id="Icon_ionic-md-arrow-round-back" data-name="Icon ionic-md-arrow-round-back" d="M18.481,11.689H9.921l3.32-3.176a1.323,1.323,0,0,0,0-1.808,1.183,1.183,0,0,0-1.728,0l-5.528,5.36a1.218,1.218,0,0,0-.36.9v.016a1.218,1.218,0,0,0,.36.9l5.524,5.36a1.183,1.183,0,0,0,1.728,0,1.323,1.323,0,0,0,0-1.808l-3.32-3.176h8.56a1.252,1.252,0,0,0,1.224-1.28A1.239,1.239,0,0,0,18.481,11.689Z" transform="translate(-5.625 -6.33)" fill="#083a3e"/>
</svg>
