<svg xmlns="http://www.w3.org/2000/svg" width="39" height="39" viewBox="0 0 39 39">
  <g id="Group_38" data-name="Group 38" transform="translate(-377 -873)">
    <circle id="Ellipse_12" data-name="Ellipse 12" cx="19.5" cy="19.5" r="19.5" transform="translate(377 873)" fill="#006d77"/>
    <g id="Layer_3" data-name="Layer 3" transform="translate(386.107 882)">
      <path id="Path_114" data-name="Path 114" d="M22.212,21.334l-.959-3.367a8.125,8.125,0,0,0-4.441-11.54A8.138,8.138,0,1,0,1.985,13.01l-.959,3.367a.708.708,0,0,0,.681.9.724.724,0,0,0,.194-.027l3.368-.96a7.815,7.815,0,0,0,1.155.5A8.187,8.187,0,0,0,14.1,22.236a8.083,8.083,0,0,0,3.873-.987l3.367.96a.724.724,0,0,0,.194.027.708.708,0,0,0,.681-.9ZM5.362,14.82a.7.7,0,0,0-.194.027l-2.43.692.692-2.43a.708.708,0,0,0-.071-.556,6.711,6.711,0,1,1,5.782,3.311,6.612,6.612,0,0,1-1.958-.3,6.475,6.475,0,0,1-1.461-.646.708.708,0,0,0-.361-.1Zm14.449,3.245L20.5,20.5l-2.43-.692a.708.708,0,0,0-.557.071,6.669,6.669,0,0,1-3.419.946,6.771,6.771,0,0,1-5.952-3.607,7.929,7.929,0,0,0,1,.067,8.107,8.107,0,0,0,8.076-9.144,6.71,6.71,0,0,1,2.666,9.376.708.708,0,0,0-.073.556Z" transform="translate(-0.996 -0.984)" fill="#fff"/>
    </g>
  </g>
</svg>
