<svg xmlns="http://www.w3.org/2000/svg" width="48" height="48" viewBox="0 0 48 48">
  <g id="Group_35" data-name="Group 35" transform="translate(-194 -704)">
    <circle id="Ellipse_19" data-name="Ellipse 19" cx="24" cy="24" r="24" transform="translate(194 704)" fill="#edf6f9"/>
    <g id="disability" transform="translate(156.903 715)">
      <g id="Group_32" data-name="Group 32" transform="translate(50.097 7.034)">
        <g id="Group_31" data-name="Group 31">
          <path id="Path_117" data-name="Path 117" d="M71.707,150.21l-1.759-7.035a2.629,2.629,0,0,0-2.559-1.992h-4.4V136.2a2.643,2.643,0,0,0-3.818-2.36l-3.517,1.759a2.618,2.618,0,0,0-1.452,2.36v1.626a7.327,7.327,0,1,0,10.539,6.874h.585l1.259,5.037a2.638,2.638,0,0,0,5.118-1.281ZM56.445,137.167l3.517-1.758a.883.883,0,0,1,.751-.017h0a.886.886,0,0,1,.528.8v3.7a7.323,7.323,0,0,0-1.764-.773v-.084a.876.876,0,1,0-1.753,0v4.189a.882.882,0,0,1-1.764,0v-5.276h0A.875.875,0,0,1,56.445,137.167Zm.98,14.562a5.569,5.569,0,0,1-3.218-10.114v1.614a2.635,2.635,0,1,0,5.27,0v-2.248a5.544,5.544,0,0,1,1.991,1.347l.032.034c.068.074.135.148.2.225.012.015.024.03.036.045a5.57,5.57,0,0,1-4.311,9.1Zm11.936-.026a.878.878,0,0,1-1.065-.64l-1.425-5.7a.874.874,0,0,0-.853-.66H64.6a7.346,7.346,0,0,0-.6-1.764H67.39a.878.878,0,0,1,.853.666L70,150.636A.881.881,0,0,1,69.361,151.7Z" transform="translate(-50.097 -133.557)" fill="#083a3e"/>
        </g>
      </g>
      <g id="Group_34" data-name="Group 34" transform="translate(57.717)">
        <g id="Group_33" data-name="Group 33">
          <path id="Path_118" data-name="Path 118" d="M198.3,0a3.517,3.517,0,1,0,3.517,3.517A3.521,3.521,0,0,0,198.3,0Zm0,5.276a1.759,1.759,0,1,1,1.759-1.759A1.761,1.761,0,0,1,198.3,5.276Z" transform="translate(-194.783)" fill="#083a3e"/>
        </g>
      </g>
    </g>
  </g>
</svg>
