<svg xmlns="http://www.w3.org/2000/svg" width="39" height="39" viewBox="0 0 39 39">
  <g id="Group_39" data-name="Group 39" transform="translate(-13 -873)">
    <circle id="Ellipse_11" data-name="Ellipse 11" cx="19.5" cy="19.5" r="19.5" transform="translate(13 873)" fill="#e29578"/>
    <path id="setting" d="M27.864,12.315l-.884-.728a1.245,1.245,0,0,1,0-1.923l.884-.728a1.655,1.655,0,0,0,.383-2.112L26.5,3.8a1.655,1.655,0,0,0-2.02-.725l-1.072.4a1.245,1.245,0,0,1-1.665-.961l-.188-1.13A1.655,1.655,0,0,0,19.918,0H16.426a1.655,1.655,0,0,0-1.638,1.387L14.6,2.517a1.245,1.245,0,0,1-1.665.961l-1.072-.4a1.655,1.655,0,0,0-2.02.725L8.1,6.825A1.655,1.655,0,0,0,8.48,8.937l.884.728a1.245,1.245,0,0,1,0,1.923l-.884.728A1.655,1.655,0,0,0,8.1,14.427L9.843,17.45a1.655,1.655,0,0,0,2.02.725l1.072-.4a1.245,1.245,0,0,1,1.665.961l.188,1.129a1.655,1.655,0,0,0,1.638,1.387h3.491a1.655,1.655,0,0,0,1.638-1.387l.188-1.129a1.245,1.245,0,0,1,1.665-.961l1.072.4a1.655,1.655,0,0,0,2.02-.725l1.746-3.024a1.655,1.655,0,0,0-.383-2.112Zm-2.8,4.305-1.072-.4a2.905,2.905,0,0,0-3.885,2.243l-.188,1.13H16.426l-.188-1.13a2.905,2.905,0,0,0-3.885-2.243l-1.072.4L9.535,13.6l.884-.728a2.905,2.905,0,0,0,0-4.486l-.884-.728L11.28,4.631l1.072.4A2.905,2.905,0,0,0,16.238,2.79l.188-1.13h3.491l.188,1.13a2.905,2.905,0,0,0,3.885,2.243l1.072-.4,1.746,3.023h0l-.884.728a2.905,2.905,0,0,0,0,4.486l.884.728ZM18.172,6.53a4.1,4.1,0,1,0,4.1,4.1A4.1,4.1,0,0,0,18.172,6.53Zm0,6.53a2.435,2.435,0,1,1,2.435-2.435A2.438,2.438,0,0,1,18.172,13.061Z" transform="translate(14.02 882)" fill="#fff"/>
  </g>
</svg>
